<svg xmlns="http://www.w3.org/2000/svg">
  <symbol id="refresh-cw" viewBox="0 0 24 24">
    <path d="M3 12a9 9 0 0 1 9-9 9.75 9.75 0 0 1 6.74 2.74L21 8" />
    <path d="M21 3v5h-5" />
    <path d="M21 12a9 9 0 0 1-9 9 9.75 9.75 0 0 1-6.74-2.74L3 16" />
    <path d="M8 16H3v5" />
  </symbol>
  <symbol id="rotate-cw" viewBox="0 0 24 24">
    <path d="M21 2v6h-6" />
    <path d="M3 12a9 9 0 0 1 15-6.7L21 8" />
    <path d="M3 22v-6h6" />
    <path d="M21 12a9 9 0 0 1-15 6.7L3 16" />
  </symbol>
  <symbol id="external-link" viewBox="0 0 24 24">
    <path d="M15 3h6v6" />
    <path d="M10 14 21 3" />
    <path d="M18 13v6a2 2 0 0 1-2 2H5a2 2 0 0 1-2-2V8a2 2 0 0 1 2-2h6" />
  </symbol>
  <symbol id="download" viewBox="0 0 24 24">
    <path d="M12 15V3" />
    <path d="M21 15v4a2 2 0 0 1-2 2H5a2 2 0 0 1-2-2v-4" />
    <path d="m7 10 5 5 5-5" />
  </symbol>
  <symbol id="copy" viewBox="0 0 24 24">
    <rect width="14" height="14" x="8" y="8" rx="2" ry="2" />
    <path d="M4 16c-1.1 0-2-.9-2-2V4c0-1.1.9-2 2-2h10c1.1 0 2 .9 2 2" />
  </symbol>
  <symbol id="check" viewBox="0 0 24 24">
    <path d="M20 6 9 17l-5-5" />
  </symbol>
  <symbol id="square-pen" viewBox="0 0 24 24">
    <path d="M12 3H5a2 2 0 0 0-2 2v14a2 2 0 0 0 2 2h14a2 2 0 0 0 2-2v-7" />
    <path d="M18.4 2.6a2.1 2.1 0 0 1 3 3L12 15l-4 1 1-4Z" />
  </symbol>
  <symbol id="scan-line" viewBox="0 0 24 24">
    <path d="M3 7V5a2 2 0 0 1 2-2h2" />
    <path d="M17 3h2a2 2 0 0 1 2 2v2" />
    <path d="M21 17v2a2 2 0 0 1-2 2h-2" />
    <path d="M7 21H5a2 2 0 0 1-2-2v-2" />
    <path d="M7 12h10" />
  </symbol>
  <symbol id="info" viewBox="0 0 24 24">
    <circle cx="12" cy="12" r="10" />
    <path d="M12 16v-4" />
    <path d="M12 8h.01" />
  </symbol>
  <symbol id="maximize-2" viewBox="0 0 24 24">
    <path d="M15 3h6v6" />
    <path d="m21 3-7 7" />
    <path d="M9 21H3v-6" />
    <path d="m3 21 7-7" />
  </symbol>
  <symbol id="settings" viewBox="0 0 24 24">
    <path d="M9.671 4.136a2.34 2.34 0 0 1 4.659 0 2.34 2.34 0 0 0 3.319 1.915 2.34 2.34 0 0 1 2.33 4.033 2.34 2.34 0 0 0 0 3.831 2.34 2.34 0 0 1-2.33 4.033 2.34 2.34 0 0 0-3.319 1.915 2.34 2.34 0 0 1-4.659 0 2.34 2.34 0 0 0-3.32-1.915 2.34 2.34 0 0 1-2.33-4.033 2.34 2.34 0 0 0 0-3.831A2.34 2.34 0 0 1 6.35 6.051a2.34 2.34 0 0 0 3.319-1.915" />
    <circle cx="12" cy="12" r="3" />
  </symbol>
  <symbol id="plus" viewBox="0 0 24 24">
    <path d="M12 5v14" />
    <path d="M5 12h14" />
  </symbol>
  <symbol id="mic" viewBox="0 0 24 24">
    <path d="M12 19v3" />
    <path d="M19 10v2a7 7 0 0 1-14 0v-2" />
    <rect x="9" y="2" width="6" height="13" rx="3" />
  </symbol>
  <symbol id="send-horizontal" viewBox="0 0 24 24">
    <path d="m3 3 3 9-3 9 19-9Z" />
    <path d="M6 12h16" />
  </symbol>
  <symbol id="file-text" viewBox="0 0 24 24">
    <path d="M6 22a2 2 0 0 1-2-2V4a2 2 0 0 1 2-2h8a2.4 2.4 0 0 1 1.704.706l3.588 3.588A2.4 2.4 0 0 1 20 8v12a2 2 0 0 1-2 2z" />
    <path d="M14 2v5a1 1 0 0 0 1 1h5" />
    <path d="M10 9H8" />
    <path d="M16 13H8" />
    <path d="M16 17H8" />
  </symbol>
  <symbol id="grid-2x2" viewBox="0 0 24 24">
    <path d="M12 3v18" />
    <path d="M3 12h18" />
    <rect x="3" y="3" width="18" height="18" rx="2" />
  </symbol>
  <symbol id="rows-3" viewBox="0 0 24 24">
    <rect width="18" height="18" x="3" y="3" rx="2" />
    <path d="M21 9H3" />
    <path d="M21 15H3" />
  </symbol>
  <symbol id="x" viewBox="0 0 24 24">
    <path d="M18 6 6 18" />
    <path d="m6 6 12 12" />
  </symbol>
  <symbol id="chevron-down" viewBox="0 0 24 24">
    <path d="m6 9 6 6 6-6" />
  </symbol>
  <symbol id="circle-check" viewBox="0 0 24 24">
    <circle cx="12" cy="12" r="10" />
    <path d="m9 12 2 2 4-4" />
  </symbol>
  <symbol id="circle" viewBox="0 0 24 24">
    <circle cx="12" cy="12" r="10" />
  </symbol>
  <symbol id="chevron-right" viewBox="0 0 24 24">
    <path d="m9 18 6-6-6-6" />
  </symbol>
  <symbol id="folder" viewBox="0 0 24 24">
    <path d="M20 20a2 2 0 0 0 2-2V8a2 2 0 0 0-2-2h-7.9a2 2 0 0 1-1.69-.9L9.6 3.9A2 2 0 0 0 7.93 3H4a2 2 0 0 0-2 2v13a2 2 0 0 0 2 2Z" />
  </symbol>
  <symbol id="folder-open" viewBox="0 0 24 24">
    <path d="m6 14 1.5-2.9A2 2 0 0 1 9.24 10H20a2 2 0 0 1 1.94 2.5l-1.54 6a2 2 0 0 1-1.95 1.5H4a2 2 0 0 1-2-2V5a2 2 0 0 1 2-2h3.9a2 2 0 0 1 1.69.9l.81 1.2a2 2 0 0 0 1.67.9H18a2 2 0 0 1 2 2v2" />
  </symbol>
  <symbol id="file" viewBox="0 0 24 24">
    <path d="M6 22a2 2 0 0 1-2-2V4a2 2 0 0 1 2-2h8a2.4 2.4 0 0 1 1.704.706l3.588 3.588A2.4 2.4 0 0 1 20 8v12a2 2 0 0 1-2 2z" />
    <path d="M14 2v5a1 1 0 0 0 1 1h5" />
  </symbol>
</svg>
